<svg width="66" height="34" viewBox="0 0 66 34" fill="none" xmlns="http://www.w3.org/2000/svg">
<path d="M11.0576 20.8119C10.5329 20.8119 10.1179 21.1691 10.1179 21.703C10.1179 22.2382 10.5342 22.5942 11.0576 22.5942C11.5822 22.5942 11.9973 22.237 11.9973 21.703C11.9986 21.1678 11.5822 20.8119 11.0576 20.8119ZM11.0576 22.3272C10.6773 22.3272 10.4066 22.0603 10.4066 21.6852C10.4066 21.328 10.6773 21.0433 11.0576 21.0433C11.4379 21.0433 11.7086 21.3102 11.7086 21.6852C11.7086 22.0603 11.4198 22.3272 11.0576 22.3272Z" fill="white"/>
<path d="M20.1545 17.6909H15.5977L16.121 9.88029L13.1562 17.6909H8.94223L15.6518 0.0534058H20.1545L19.6298 7.95432L22.6501 0.0534058H26.8808L20.1545 17.6909Z" fill="white"/>
<path d="M20.7152 17.6909L27.4235 0.0534058H31.6555L24.9459 17.6909H20.7152Z" fill="white"/>
<path d="M8.45366 11.6092C2.54073 18.4575 -3.02931 27.5699 1.88976 31.7613C6.66316 35.8268 12.6315 33.4203 16.6998 31.8147C20.7681 30.2091 65.7229 10.9494 65.7229 10.9494C66.1573 10.7358 66.067 10.4676 65.5424 10.61C65.3258 10.6634 16.5915 23.6824 16.5915 23.6824C10.4066 25.3948 3.35413 21.6674 8.45366 11.6092Z" fill="white"/>
<path d="M11.2213 21.7564C11.3476 21.7564 11.4559 21.6852 11.4559 21.5073C11.4559 21.2759 11.3115 21.2225 11.0395 21.2225H10.6773V22.1861H10.93V21.7755H10.9661L11.1826 22.1861H11.4714L11.2213 21.7564ZM11.0576 21.6141H10.9132V21.4005H11.0395C11.1117 21.4005 11.202 21.4005 11.202 21.5073C11.1852 21.5785 11.1491 21.6141 11.0576 21.6141Z" fill="white"/>
<path d="M53.5722 0C53.0475 0 52.6324 0.357226 52.6324 0.891157C52.6324 1.42509 53.0488 1.78231 53.5722 1.78231C54.0968 1.78231 54.5119 1.42509 54.5119 0.891157C54.5119 0.357226 54.0968 0 53.5722 0ZM53.5722 1.51535C53.1919 1.51535 52.9212 1.24838 52.9212 0.873359C52.9212 0.516134 53.1919 0.23137 53.5722 0.23137C53.9524 0.23137 54.2232 0.498336 54.2232 0.873359C54.2232 1.24838 53.9512 1.51535 53.5722 1.51535Z" fill="white"/>
<path d="M53.7346 0.944546C53.8609 0.944546 53.9692 0.873355 53.9692 0.695377C53.9692 0.464007 53.8248 0.410614 53.5528 0.410614H53.1906V1.37423H53.4432V0.944546H53.4793L53.6959 1.35516H53.9846L53.7346 0.944546ZM53.5902 0.784366H53.4458V0.570793H53.5721C53.6443 0.570793 53.7346 0.570793 53.7346 0.67758C53.7165 0.766568 53.6624 0.784366 53.5902 0.784366Z" fill="white"/>
<path d="M50.7865 2.97856L51.926 0.0355835H43.4453H43.4092H39.0148L34.5843 5.33168L36.6274 0.0355835H32.3426L25.6884 17.6909H29.9204L32.759 10.3074L32.9575 17.6909L45.9409 17.6553L47.1707 14.2674H42.2336L43.8617 9.98705H47.9299L49.1777 6.70591H45.1095L46.5016 2.99636H50.7878V2.97856H50.7865ZM37.1521 16.5137L36.8814 7.31104L43.2829 0.391538L37.1521 16.5137Z" fill="white"/>
</svg>
